<?xml version="1.0" encoding="UTF-8" standalone="no"?>
<!-- Created with Inkscape (http://www.inkscape.org/) -->

<svg
   width="15cm"
   height="5cm"
   viewBox="0 0 150 50"
   version="1.1"
   id="svg1"
   xmlns="http://www.w3.org/2000/svg"
   xmlns:svg="http://www.w3.org/2000/svg">
  <defs
     id="defs1" />
  <g
     id="layer1"
     transform="translate(-4.6789499,5.5924945)">
    <path
       d="m 12.228904,23.827106 q -0.01368,-4.4196 1.754096,-7.7216 1.818577,-3.302 5.013473,-5.08 3.245696,-1.7780001 7.411296,-1.7780001 5.333999,0 8.898648,2.7940001 3.61545,2.794 4.748776,7.874 h -9.2456 q -1.178464,-3.2512 -4.531264,-3.2512 -2.3876,0 -3.804181,1.8796 -1.416738,1.8288 -1.406044,5.2832 0.01069,3.4544 1.438913,5.334 1.428061,1.828799 3.815661,1.828799 3.3528,0 4.511134,-3.251199 h 9.2456 q -1.102188,4.978399 -4.700181,7.823199 -3.597993,2.8448 -8.881192,2.8448 -4.1656,0 -7.422304,-1.778 -3.205904,-1.778 -5.044927,-5.08 -1.788222,-3.301999 -1.801904,-7.721599 z M 51.05542,0.40830576 51.171796,38.000305 H 42.484997 L 42.368621,0.40830576 Z"
       id="text7"
       style="font-weight:bold;font-size:50.8px;font-family:Poppins;-inkscape-font-specification:'Poppins, Bold';letter-spacing:-2.24896px;display:inline;stroke:none;stroke-width:0.264583"
       aria-label="cl" />
    <path
       d="m 85.09232,23.776305 q -0.01353,-4.3688 1.601853,-7.6708 1.666177,-3.302 4.505473,-5.08 2.839296,-1.778 6.344496,-1.778 2.997198,0 5.236168,1.2192 2.28978,1.2192 3.51511,3.2004 l -0.0124,-4.0132 h 8.6868 l 0.0878,28.3464 h -8.6868 l -0.0124,-4.0132 q -1.26387,1.9812 -3.5461,3.2004 -2.23142,1.2192 -5.228618,1.2192 -3.4544,0 -6.304704,-1.778 -2.850462,-1.8288 -4.537084,-5.1308 -1.635979,-3.3528 -1.649504,-7.7216 z m 21.23455,0.0508 q -0.0101,-3.2512 -1.84468,-5.1308 -1.78382,-1.8796 -4.37462,-1.8796 -2.590796,0 -4.413777,1.8796 -1.772338,1.8288 -1.762273,5.08 0.01006,3.2512 1.794041,5.1816 1.834619,1.8796 4.425409,1.8796 2.5908,0 4.36299,-1.8796 1.82298,-1.8796 1.81291,-5.1308 z m 30.10377,14.1732 -8.6728,-11.8872 0.0368,11.8872 h -8.6868 L 118.99146,0.40830561 h 8.6868 l 0.0643,20.77719939 8.5495,-11.5316 h 10.7188 l -11.74156,14.224 11.93092,14.1224 z"
       id="text8"
       style="font-weight:bold;font-size:50.8px;font-family:Poppins;-inkscape-font-specification:'Poppins, Bold';letter-spacing:-2.24896px;stroke:none;stroke-width:0.264583"
       aria-label="ak" />
    <g
       id="g8"
       transform="translate(0.23760606,0.28805902)">
      <path
         id="path4"
         style="fill:#000000;fill-opacity:1;fill-rule:nonzero;stroke:none;stroke-width:0.264583;stroke-opacity:1"
         d="m 65.456384,32.52568 c -0.42612,0.0081 -0.848848,0.108431 -1.241267,0.326079 -1.142296,0.566184 -1.718513,1.802195 -2.319564,2.85927 0.862694,0.200156 1.850016,1.076333 3.260592,0.738443 1.038287,-0.443942 2.466915,-1.690916 3.135725,-2.856157 -0.263644,-0.158001 -0.529573,-0.311199 -0.801501,-0.452685 -0.604268,-0.384998 -1.323784,-0.628367 -2.033985,-0.61495 z" />
      <path
         id="path2-5"
         style="display:inline;fill:#000000;fill-opacity:1;stroke:none;stroke-width:0.264583;stroke-opacity:1"
         d="m 72.587891,9.3066406 c -2.60684,0.00626 -4.036482,0.6733722 -6.522902,3.4123344 -3.810215,4.508948 -5.613668,9.990934 -8.99528,14.786654 -1.162086,1.779149 -3.087587,3.706331 -4.107914,5.558718 0.143542,2.01036 5.222056,4.95677 7.276225,4.17222 1.645535,-1.065496 1.844808,-3.371321 3.523265,-4.424327 1.088767,-0.764336 2.580962,-0.705312 3.678975,0.0092 3.167765,1.682355 7.542677,5.618374 9.550885,5.276248 0.782564,-0.657133 1.141575,-1.213129 1.717502,-2.175138 2.321181,-4.252283 3.771263,-8.966303 4.087287,-13.74367 0.120055,-3.090113 -0.06766,-6.582044 -1.282162,-9.475641 -0.916708,-2.157155 -3.270405,-3.3801534 -5.550881,-3.3672695 -1.124991,-0.026294 -2.249551,-0.045577 -3.375,-0.029297 z" />
    </g>
  </g>
</svg>
