<?xml version="1.0" encoding="UTF-8" standalone="no"?>
<!-- Created with Inkscape (http://www.inkscape.org/) -->

<svg
   width="4cm"
   height="4cm"
   viewBox="0 0 40 40"
   version="1.1"
   id="svg1"
   xmlns="http://www.w3.org/2000/svg"
   xmlns:svg="http://www.w3.org/2000/svg">
  <defs
     id="defs1" />
  <g
     id="layer1"
     transform="translate(-46.123445,-3.7075986)">
    <g
       id="g8"
       transform="translate(-1.853903,0.00651542)">
      <path
         id="path4"
         style="fill:#000000;fill-opacity:1;fill-rule:nonzero;stroke:none;stroke-width:0.264583;stroke-opacity:1"
         d="m 65.456384,32.52568 c -0.42612,0.0081 -0.848848,0.108431 -1.241267,0.326079 -1.142296,0.566184 -1.65721,1.697795 -2.258261,2.75487 0.862694,0.200156 2.053296,0.91615 3.463872,0.57826 1.097522,-0.262901 2.202332,-1.426333 2.871142,-2.591574 -0.263644,-0.158001 -0.529573,-0.311199 -0.801501,-0.452685 -0.604268,-0.384998 -1.323784,-0.628367 -2.033985,-0.61495 z" />
      <path
         id="path2"
         style="display:inline;fill:#000000;fill-opacity:1;stroke:none;stroke-width:0.264583;stroke-opacity:1"
         d="m 72.587891,9.3066406 c -2.60684,0.00626 -5.285063,1.1924774 -6.787485,3.4123344 -3.810215,4.508948 -5.613668,10.255517 -8.99528,15.051237 -1.162086,1.779149 -2.558421,3.441748 -3.578748,5.294135 -0.123377,1.530001 1.351663,2.489242 2.483232,3.169027 1.32528,0.821106 2.991108,1.590336 4.52841,1.003193 1.645535,-1.065496 1.844808,-3.371321 3.523265,-4.424327 1.088767,-0.764336 2.580962,-0.705312 3.678975,0.0092 3.194803,1.582384 5.691241,4.529672 9.286302,5.276248 1.339651,0.09654 1.954484,-1.283927 2.530411,-2.245936 2.321181,-4.252283 3.120362,-9.187634 3.436386,-13.965001 0.120055,-3.090113 0.03492,-6.289915 -1.179587,-9.183512 -0.916708,-2.157155 -3.270405,-3.3801534 -5.550881,-3.3672695 -1.124991,-0.026294 -2.249551,-0.045577 -3.375,-0.029297 z" />
    </g>
  </g>
</svg>
