<?xml version="1.0" encoding="UTF-8" standalone="no"?>
<!-- Created with Inkscape (http://www.inkscape.org/) -->

<svg
   width="4cm"
   height="4cm"
   viewBox="0 0 40 40"
   version="1.1"
   id="svg1"
   xmlns="http://www.w3.org/2000/svg"
   xmlns:svg="http://www.w3.org/2000/svg">
  <defs
     id="defs1" />
  <g
     id="layer1"
     transform="translate(-46.123445,-3.7075986)">
    <g
       id="g8"
       transform="translate(-1.853903,0.00651542)">
      <path
         id="path4"
         style="fill:#000000;fill-opacity:1;fill-rule:nonzero;stroke:none;stroke-width:0.264583;stroke-opacity:1"
         d="m 65.456384,32.52568 c -0.42612,0.0081 -0.848848,0.108431 -1.241267,0.326079 -1.142296,0.566184 -1.718513,1.802195 -2.319564,2.85927 0.862694,0.200156 1.850016,1.076333 3.260592,0.738443 1.038287,-0.443942 2.466915,-1.690916 3.135725,-2.856157 -0.263644,-0.158001 -0.529573,-0.311199 -0.801501,-0.452685 -0.604268,-0.384998 -1.323784,-0.628367 -2.033985,-0.61495 z" />
      <path
         id="path2"
         style="display:inline;fill:#000000;fill-opacity:1;stroke:none;stroke-width:0.264583;stroke-opacity:1"
         d="m 72.587891,9.3066406 c -2.60684,0.00626 -4.036482,0.6733722 -6.522902,3.4123344 -3.810215,4.508948 -5.613668,9.990934 -8.99528,14.786654 -1.162086,1.779149 -3.087587,3.706331 -4.107914,5.558718 0.143542,2.01036 5.222056,4.95677 7.276225,4.17222 1.645535,-1.065496 1.844808,-3.371321 3.523265,-4.424327 1.088767,-0.764336 2.580962,-0.705312 3.678975,0.0092 3.167765,1.682355 7.542677,5.618374 9.550885,5.276248 0.782564,-0.657133 1.141575,-1.213129 1.717502,-2.175138 2.321181,-4.252283 3.771263,-8.966303 4.087287,-13.74367 0.120055,-3.090113 -0.06766,-6.582044 -1.282162,-9.475641 -0.916708,-2.157155 -3.270405,-3.3801534 -5.550881,-3.3672695 -1.124991,-0.026294 -2.249551,-0.045577 -3.375,-0.029297 z" />
    </g>
  </g>
</svg>
